<svg xmlns="http://www.w3.org/2000/svg" viewBox="0 -0.5 75 75" shape-rendering="crispEdges">
<path stroke="#000000" d="M0 20h5M35 20h5M70 20h5M0 21h5M35 21h5M70 21h5M0 22h5M35 22h5M70 22h5M0 23h5M35 23h5M70 23h5M0 24h5M35 24h5M70 24h5M0 25h10M30 25h15M65 25h10M0 26h10M30 26h15M65 26h10M0 27h10M30 27h15M65 27h10M0 28h10M30 28h15M65 28h10M0 29h10M30 29h15M65 29h10M0 30h15M25 30h25M60 30h15M0 31h15M25 31h25M60 31h15M0 32h15M25 32h25M60 32h15M0 33h15M25 33h25M60 33h15M0 34h15M25 34h25M60 34h15M0 35h75M0 36h75M0 37h75M0 38h75M0 39h75M0 40h75M0 41h75M0 42h75M0 43h75M0 44h75M0 45h75M0 46h75M0 47h75M0 48h75M0 49h75M0 50h75M0 51h75M0 52h75M0 53h75M0 54h75M0 55h75M0 56h75M0 57h75M0 58h75M0 59h75" />
</svg>